<svg id="Capa_1" enable-background="new 0 0 512.009 512.009" height="512" viewBox="0 0 512.009 512.009" width="512" xmlns="http://www.w3.org/2000/svg"><g><path d="m283.471 146.644-28.843 34.552c-5.288 6.299-14.707 7.192-21.079 1.934l-.059-.044c-6.401-5.332-15.835-4.468-21.123 1.904-5.317 6.357-4.453 15.82 1.904 21.123l42.909 35.821c.15.099.328.108.474.214 7.441 6.167 16.86 5.361 22.192-.864l49.406-56.418z"/><path d="m509.412 23.432c4.263-6.27 3.164-14.722-2.534-19.717s-14.209-4.951-19.878.118l-97.357 86.147c-9.243 8.276-23.438 8.496-32.944.571l-4.028-3.369c-6.641-5.555-16.042-4.231-21.138 1.89l-28.839 34.547 115.137 96.123 28.839-34.547c5.303-6.357 4.453-15.806-1.89-21.123-11.558-9.653-13.901-26.338-5.464-38.804z"/><path d="m369.78 277.304 28.83-34.537-46.335-38.681-49.634 56.68c-3.364 3.942-7.392 6.916-11.655 9.386l15.41 12.865c18.905 15.817 47.312 13.537 63.384-5.713z"/><path d="m180.87 181.344c1.738-5.64 4.581-10.937 8.485-15.602 12.081-14.559 32.184-20.032 50.215-13.315l6.299-7.546c-40.747-85.315-128.27-144.872-230.864-144.872-8.291 0-15 6.709-15 15v75h15c69.408 0 131.3 36.568 165.865 91.335z"/><path d="m15.005 180.009c57.891 0 106 47.109 106 105v30c0 107.52 87.48 197 195 197h120c8.291 0 15-6.709 15-15s-6.709-15-15-15c-90.981 0-165-76.019-165-167v-22.456l-66.141-55.223c3.865 15.291 6.141 31.205 6.141 47.679 0 8.291-6.709 15-15 15s-15-6.709-15-15c0-90.981-75.019-165-166-165h-15v45c0 8.291 6.709 15 15 15z"/></g></svg>