<svg id="Capa_1" enable-background="new 0 0 512 512" height="512" viewBox="0 0 512 512" width="512" xmlns="http://www.w3.org/2000/svg"><g><path d="m443.189 291.066-239.464-239.598c4.489-12.425 1.968-26.801-7.398-37.1-.166-.182-.332-.365-.498-.547-14.717-16.183-40.169-15.865-54.636.544-5.573 6.321-10.883 12.794-15.946 19.397l-5.026.011c-13.355 0-24.221-8.418-24.221-18.765 0-8.288-6.716-15.008-15-15.008s-15 6.72-15 15.008c0 22.352 16.803 41.227 39.637 46.974-84.831 135.333-72.979 314.413 35.558 437.522 14.466 16.408 39.918 16.727 54.636.544.166-.182.332-.365.498-.547 12.51-13.756 12.811-34.781.507-48.721-86.146-97.599-96.124-239.309-29.968-347.147l59.156 59.19-18.981 18.991c-5.858 5.861-5.858 15.364 0 21.225l197.322 197.433c5.858 5.861 15.355 5.861 21.213 0l17.612-17.622c25.33-25.346 25.33-66.439-.001-91.784z"/></g></svg>