<svg id="Capa_1" enable-background="new 0 0 512.073 512.073" height="512" viewBox="0 0 512.073 512.073" width="512" xmlns="http://www.w3.org/2000/svg"><g><path d="m480.563 374.528h-238.98c6.96-34.19 37.27-60 73.49-60h92c36.22 0 66.53 25.81 73.49 60z"/><path d="m120.073 404.528c0-52.988-64.513-80.331-102.43-42.43-37.912 37.928-10.547 102.43 42.43 102.43h422c16.57 0 30-13.43 30-30v-30zm-45 15h-30v-30h30z"/><path d="m372.053 77.548-256.28 256.28c-19.18-15.16-43.07-21.4-66.13-18.72l258.78-258.78c11.71-11.71 30.71-11.71 42.42 0z"/><path d="m361.453 209.218-63.64 63.64c-24.56 24.56-61.87 28.54-90.56 11.92l166.12-166.12c16.62 28.69 12.65 65.99-11.92 90.56z"/><g><path d="m412.22 249.381h-15v-30h15c19.424 0 22.322-7.948 27.841-30.93 5.157-21.473 12.951-53.923 57.012-53.923h15v30h-15c-19.424 0-22.322 7.948-27.841 30.929-5.157 21.473-12.951 53.924-57.012 53.924z"/></g></g></svg>